<mxfile host="app.diagrams.net" modified="2023-04-08T09:05:00.031Z" agent="5.0 (Windows NT 10.0; WOW64) AppleWebKit/537.36 (KHTML, like Gecko) Chrome/86.0.4240.198 Safari/537.36" etag="LpyCpE8zpd7EqLgGOW5z" version="21.0.2" type="github">
  <diagram name="第 1 页" id="VErv0yeWC4nxGl2qNaPM">
    <mxGraphModel dx="1434" dy="763" grid="1" gridSize="10" guides="1" tooltips="1" connect="1" arrows="1" fold="1" page="1" pageScale="1" pageWidth="827" pageHeight="1169" math="0" shadow="0">
      <root>
        <mxCell id="0" />
        <mxCell id="1" parent="0" />
        <mxCell id="ILm5f9nuPFu_kfyv7cst-136" value="mqtt 平台" style="rounded=0;whiteSpace=wrap;html=1;" vertex="1" parent="1">
          <mxGeometry x="670" y="30" width="120" height="60" as="geometry" />
        </mxCell>
        <mxCell id="ILm5f9nuPFu_kfyv7cst-137" value="mqagent" style="rounded=0;whiteSpace=wrap;html=1;" vertex="1" parent="1">
          <mxGeometry x="410" y="30" width="120" height="60" as="geometry" />
        </mxCell>
        <mxCell id="ILm5f9nuPFu_kfyv7cst-138" value="" style="endArrow=none;html=1;entryX=0.5;entryY=1;entryDx=0;entryDy=0;" edge="1" parent="1" target="ILm5f9nuPFu_kfyv7cst-136">
          <mxGeometry width="50" height="50" relative="1" as="geometry">
            <mxPoint x="730" y="340" as="sourcePoint" />
            <mxPoint x="720" y="140" as="targetPoint" />
          </mxGeometry>
        </mxCell>
        <mxCell id="ILm5f9nuPFu_kfyv7cst-139" value="" style="endArrow=none;html=1;" edge="1" parent="1">
          <mxGeometry width="50" height="50" relative="1" as="geometry">
            <mxPoint x="470" y="340" as="sourcePoint" />
            <mxPoint x="470" y="90" as="targetPoint" />
          </mxGeometry>
        </mxCell>
        <mxCell id="ILm5f9nuPFu_kfyv7cst-140" value="" style="endArrow=classic;html=1;" edge="1" parent="1">
          <mxGeometry width="50" height="50" relative="1" as="geometry">
            <mxPoint x="730" y="140" as="sourcePoint" />
            <mxPoint x="470" y="140" as="targetPoint" />
          </mxGeometry>
        </mxCell>
        <mxCell id="ILm5f9nuPFu_kfyv7cst-141" value="发布command主题" style="edgeLabel;html=1;align=center;verticalAlign=middle;resizable=0;points=[];" vertex="1" connectable="0" parent="ILm5f9nuPFu_kfyv7cst-140">
          <mxGeometry x="-0.168" y="1" relative="1" as="geometry">
            <mxPoint x="-22" as="offset" />
          </mxGeometry>
        </mxCell>
        <mxCell id="ILm5f9nuPFu_kfyv7cst-142" value="应用" style="rounded=0;whiteSpace=wrap;html=1;" vertex="1" parent="1">
          <mxGeometry x="160" y="30" width="120" height="60" as="geometry" />
        </mxCell>
        <mxCell id="ILm5f9nuPFu_kfyv7cst-143" value="" style="endArrow=none;html=1;" edge="1" parent="1">
          <mxGeometry width="50" height="50" relative="1" as="geometry">
            <mxPoint x="220" y="340" as="sourcePoint" />
            <mxPoint x="220" y="90" as="targetPoint" />
          </mxGeometry>
        </mxCell>
        <mxCell id="ILm5f9nuPFu_kfyv7cst-144" value="" style="endArrow=classic;html=1;" edge="1" parent="1">
          <mxGeometry width="50" height="50" relative="1" as="geometry">
            <mxPoint x="470" y="180" as="sourcePoint" />
            <mxPoint x="220" y="180" as="targetPoint" />
          </mxGeometry>
        </mxCell>
        <mxCell id="ILm5f9nuPFu_kfyv7cst-145" value="ubus invoke async" style="edgeLabel;html=1;align=center;verticalAlign=middle;resizable=0;points=[];" vertex="1" connectable="0" parent="ILm5f9nuPFu_kfyv7cst-144">
          <mxGeometry x="-0.088" y="3" relative="1" as="geometry">
            <mxPoint as="offset" />
          </mxGeometry>
        </mxCell>
        <mxCell id="ILm5f9nuPFu_kfyv7cst-146" value="" style="endArrow=classic;html=1;" edge="1" parent="1">
          <mxGeometry width="50" height="50" relative="1" as="geometry">
            <mxPoint x="220" y="260" as="sourcePoint" />
            <mxPoint x="470" y="260" as="targetPoint" />
          </mxGeometry>
        </mxCell>
        <mxCell id="ILm5f9nuPFu_kfyv7cst-147" value="ubus invoke 响应" style="edgeLabel;html=1;align=center;verticalAlign=middle;resizable=0;points=[];" vertex="1" connectable="0" parent="ILm5f9nuPFu_kfyv7cst-146">
          <mxGeometry x="0.368" relative="1" as="geometry">
            <mxPoint x="-41" as="offset" />
          </mxGeometry>
        </mxCell>
        <mxCell id="ILm5f9nuPFu_kfyv7cst-148" value="发布command_reply主题" style="endArrow=classic;html=1;" edge="1" parent="1">
          <mxGeometry width="50" height="50" relative="1" as="geometry">
            <mxPoint x="470" y="290" as="sourcePoint" />
            <mxPoint x="730" y="290" as="targetPoint" />
          </mxGeometry>
        </mxCell>
        <mxCell id="ILm5f9nuPFu_kfyv7cst-149" value="" style="endArrow=classic;html=1;" edge="1" parent="1">
          <mxGeometry width="50" height="50" relative="1" as="geometry">
            <mxPoint x="470" y="210" as="sourcePoint" />
            <mxPoint x="470" y="230" as="targetPoint" />
            <Array as="points">
              <mxPoint x="400" y="210" />
              <mxPoint x="400" y="230" />
            </Array>
          </mxGeometry>
        </mxCell>
        <mxCell id="ILm5f9nuPFu_kfyv7cst-150" value="进入API_RUNNING&lt;br&gt;直到超时或ubus 响应" style="edgeLabel;html=1;align=center;verticalAlign=middle;resizable=0;points=[];" vertex="1" connectable="0" parent="ILm5f9nuPFu_kfyv7cst-149">
          <mxGeometry x="-0.8" y="-1" relative="1" as="geometry">
            <mxPoint x="76" y="11" as="offset" />
          </mxGeometry>
        </mxCell>
        <mxCell id="ILm5f9nuPFu_kfyv7cst-151" value="mqtt 平台" style="rounded=0;whiteSpace=wrap;html=1;" vertex="1" parent="1">
          <mxGeometry x="665" y="360" width="120" height="60" as="geometry" />
        </mxCell>
        <mxCell id="ILm5f9nuPFu_kfyv7cst-152" value="mqagent" style="rounded=0;whiteSpace=wrap;html=1;" vertex="1" parent="1">
          <mxGeometry x="410" y="360" width="120" height="60" as="geometry" />
        </mxCell>
        <mxCell id="ILm5f9nuPFu_kfyv7cst-153" value="" style="endArrow=none;html=1;entryX=0.5;entryY=1;entryDx=0;entryDy=0;" edge="1" parent="1" target="ILm5f9nuPFu_kfyv7cst-151">
          <mxGeometry width="50" height="50" relative="1" as="geometry">
            <mxPoint x="725" y="710" as="sourcePoint" />
            <mxPoint x="715" y="510" as="targetPoint" />
          </mxGeometry>
        </mxCell>
        <mxCell id="ILm5f9nuPFu_kfyv7cst-154" value="" style="endArrow=none;html=1;entryX=0.5;entryY=1;entryDx=0;entryDy=0;" edge="1" parent="1" target="ILm5f9nuPFu_kfyv7cst-152">
          <mxGeometry width="50" height="50" relative="1" as="geometry">
            <mxPoint x="470" y="710" as="sourcePoint" />
            <mxPoint x="465" y="460" as="targetPoint" />
          </mxGeometry>
        </mxCell>
        <mxCell id="ILm5f9nuPFu_kfyv7cst-155" value="应用" style="rounded=0;whiteSpace=wrap;html=1;" vertex="1" parent="1">
          <mxGeometry x="155" y="360" width="120" height="60" as="geometry" />
        </mxCell>
        <mxCell id="ILm5f9nuPFu_kfyv7cst-156" value="" style="endArrow=none;html=1;entryX=0.5;entryY=1;entryDx=0;entryDy=0;" edge="1" parent="1" target="ILm5f9nuPFu_kfyv7cst-155">
          <mxGeometry width="50" height="50" relative="1" as="geometry">
            <mxPoint x="215" y="710" as="sourcePoint" />
            <mxPoint x="215" y="460" as="targetPoint" />
          </mxGeometry>
        </mxCell>
        <mxCell id="ILm5f9nuPFu_kfyv7cst-157" value="" style="endArrow=classic;html=1;" edge="1" parent="1">
          <mxGeometry width="50" height="50" relative="1" as="geometry">
            <mxPoint x="465" y="490" as="sourcePoint" />
            <mxPoint x="215" y="490" as="targetPoint" />
          </mxGeometry>
        </mxCell>
        <mxCell id="ILm5f9nuPFu_kfyv7cst-158" value="每个1分钟&lt;br&gt;ubus invoke &lt;br&gt;updateSubscribe" style="edgeLabel;html=1;align=center;verticalAlign=middle;resizable=0;points=[];" vertex="1" connectable="0" parent="ILm5f9nuPFu_kfyv7cst-157">
          <mxGeometry x="-0.088" y="3" relative="1" as="geometry">
            <mxPoint as="offset" />
          </mxGeometry>
        </mxCell>
        <mxCell id="ILm5f9nuPFu_kfyv7cst-159" value="" style="endArrow=classic;html=1;" edge="1" parent="1">
          <mxGeometry width="50" height="50" relative="1" as="geometry">
            <mxPoint x="215" y="530" as="sourcePoint" />
            <mxPoint x="465" y="530" as="targetPoint" />
          </mxGeometry>
        </mxCell>
        <mxCell id="ILm5f9nuPFu_kfyv7cst-160" value="updateSubscribe方法中&lt;br&gt;调用了ubus_notify&lt;br&gt;发布 需要上报到mqtt的主题到ubusd" style="edgeLabel;html=1;align=center;verticalAlign=middle;resizable=0;points=[];" vertex="1" connectable="0" parent="ILm5f9nuPFu_kfyv7cst-159">
          <mxGeometry x="0.368" relative="1" as="geometry">
            <mxPoint x="-36" y="10" as="offset" />
          </mxGeometry>
        </mxCell>
        <mxCell id="ILm5f9nuPFu_kfyv7cst-161" value="发布report主题" style="endArrow=classic;html=1;" edge="1" parent="1">
          <mxGeometry width="50" height="50" relative="1" as="geometry">
            <mxPoint x="470" y="620" as="sourcePoint" />
            <mxPoint x="730" y="620" as="targetPoint" />
          </mxGeometry>
        </mxCell>
        <mxCell id="ILm5f9nuPFu_kfyv7cst-162" value="" style="endArrow=classic;html=1;" edge="1" parent="1">
          <mxGeometry width="50" height="50" relative="1" as="geometry">
            <mxPoint x="470" y="440" as="sourcePoint" />
            <mxPoint x="220" y="440" as="targetPoint" />
          </mxGeometry>
        </mxCell>
        <mxCell id="ILm5f9nuPFu_kfyv7cst-163" value="ubus_subscribe&lt;br&gt;订阅ubusd主题" style="edgeLabel;html=1;align=center;verticalAlign=middle;resizable=0;points=[];" vertex="1" connectable="0" parent="ILm5f9nuPFu_kfyv7cst-162">
          <mxGeometry x="-0.088" y="3" relative="1" as="geometry">
            <mxPoint as="offset" />
          </mxGeometry>
        </mxCell>
        <mxCell id="ILm5f9nuPFu_kfyv7cst-164" value="将ubus订阅的消息&lt;br&gt;解析成mqtt主题的格式" style="edgeLabel;html=1;align=center;verticalAlign=middle;resizable=0;points=[];" vertex="1" connectable="0" parent="1">
          <mxGeometry x="530" y="580" as="geometry" />
        </mxCell>
        <mxCell id="ILm5f9nuPFu_kfyv7cst-165" value="report 主题" style="shape=document;whiteSpace=wrap;html=1;boundedLbl=1;" vertex="1" parent="1">
          <mxGeometry x="30" y="350" width="120" height="80" as="geometry" />
        </mxCell>
        <mxCell id="ILm5f9nuPFu_kfyv7cst-166" value="command&amp;nbsp;主题" style="shape=document;whiteSpace=wrap;html=1;boundedLbl=1;" vertex="1" parent="1">
          <mxGeometry x="30" y="20" width="120" height="80" as="geometry" />
        </mxCell>
        <mxCell id="ILm5f9nuPFu_kfyv7cst-167" value="mqtt 平台" style="rounded=0;whiteSpace=wrap;html=1;" vertex="1" parent="1">
          <mxGeometry x="750" y="730" width="120" height="60" as="geometry" />
        </mxCell>
        <mxCell id="ILm5f9nuPFu_kfyv7cst-168" value="mqagent" style="rounded=0;whiteSpace=wrap;html=1;" vertex="1" parent="1">
          <mxGeometry x="552.5" y="730" width="120" height="60" as="geometry" />
        </mxCell>
        <mxCell id="ILm5f9nuPFu_kfyv7cst-169" value="" style="endArrow=none;html=1;entryX=0.5;entryY=1;entryDx=0;entryDy=0;" edge="1" parent="1" target="ILm5f9nuPFu_kfyv7cst-167">
          <mxGeometry width="50" height="50" relative="1" as="geometry">
            <mxPoint x="810" y="1080" as="sourcePoint" />
            <mxPoint x="800" y="880" as="targetPoint" />
          </mxGeometry>
        </mxCell>
        <mxCell id="ILm5f9nuPFu_kfyv7cst-170" value="" style="endArrow=none;html=1;entryX=0.5;entryY=1;entryDx=0;entryDy=0;" edge="1" parent="1" target="ILm5f9nuPFu_kfyv7cst-168">
          <mxGeometry width="50" height="50" relative="1" as="geometry">
            <mxPoint x="612.5" y="1080" as="sourcePoint" />
            <mxPoint x="607.5" y="830" as="targetPoint" />
          </mxGeometry>
        </mxCell>
        <mxCell id="ILm5f9nuPFu_kfyv7cst-171" value="应用" style="rounded=0;whiteSpace=wrap;html=1;" vertex="1" parent="1">
          <mxGeometry x="155" y="730" width="120" height="60" as="geometry" />
        </mxCell>
        <mxCell id="ILm5f9nuPFu_kfyv7cst-172" value="" style="endArrow=none;html=1;entryX=0.5;entryY=1;entryDx=0;entryDy=0;" edge="1" parent="1" target="ILm5f9nuPFu_kfyv7cst-171">
          <mxGeometry width="50" height="50" relative="1" as="geometry">
            <mxPoint x="215" y="1080" as="sourcePoint" />
            <mxPoint x="215" y="830" as="targetPoint" />
          </mxGeometry>
        </mxCell>
        <mxCell id="ILm5f9nuPFu_kfyv7cst-173" value="发布alarm主题" style="endArrow=classic;html=1;" edge="1" parent="1">
          <mxGeometry width="50" height="50" relative="1" as="geometry">
            <mxPoint x="612.5" y="990" as="sourcePoint" />
            <mxPoint x="810" y="990" as="targetPoint" />
          </mxGeometry>
        </mxCell>
        <mxCell id="ILm5f9nuPFu_kfyv7cst-174" value="将ubus订阅的消息&lt;br&gt;解析成mqtt主题的格式" style="edgeLabel;html=1;align=center;verticalAlign=middle;resizable=0;points=[];" vertex="1" connectable="0" parent="1">
          <mxGeometry x="672.5" y="950" as="geometry" />
        </mxCell>
        <mxCell id="ILm5f9nuPFu_kfyv7cst-175" value="alarm 主题" style="shape=document;whiteSpace=wrap;html=1;boundedLbl=1;" vertex="1" parent="1">
          <mxGeometry x="30" y="720" width="120" height="80" as="geometry" />
        </mxCell>
        <mxCell id="ILm5f9nuPFu_kfyv7cst-176" value="alarmhub" style="rounded=0;whiteSpace=wrap;html=1;" vertex="1" parent="1">
          <mxGeometry x="350" y="730" width="120" height="60" as="geometry" />
        </mxCell>
        <mxCell id="ILm5f9nuPFu_kfyv7cst-177" value="" style="endArrow=none;html=1;entryX=0.5;entryY=1;entryDx=0;entryDy=0;" edge="1" parent="1" target="ILm5f9nuPFu_kfyv7cst-176">
          <mxGeometry width="50" height="50" relative="1" as="geometry">
            <mxPoint x="410" y="1080" as="sourcePoint" />
            <mxPoint x="410" y="830" as="targetPoint" />
          </mxGeometry>
        </mxCell>
        <mxCell id="ILm5f9nuPFu_kfyv7cst-178" value="" style="endArrow=classic;html=1;" edge="1" parent="1">
          <mxGeometry width="50" height="50" relative="1" as="geometry">
            <mxPoint x="210" y="830" as="sourcePoint" />
            <mxPoint x="410" y="830" as="targetPoint" />
          </mxGeometry>
        </mxCell>
        <mxCell id="ILm5f9nuPFu_kfyv7cst-179" value="往socke发送告警msg" style="edgeLabel;html=1;align=center;verticalAlign=middle;resizable=0;points=[];" vertex="1" connectable="0" parent="ILm5f9nuPFu_kfyv7cst-178">
          <mxGeometry x="0.15" y="-3" relative="1" as="geometry">
            <mxPoint as="offset" />
          </mxGeometry>
        </mxCell>
        <mxCell id="ILm5f9nuPFu_kfyv7cst-180" value="记录msg到&lt;br&gt;file、数据库、&lt;br&gt;ubus_notify" style="edgeLabel;html=1;align=center;verticalAlign=middle;resizable=0;points=[];" vertex="1" connectable="0" parent="1">
          <mxGeometry x="370" y="880" as="geometry" />
        </mxCell>
        <mxCell id="ILm5f9nuPFu_kfyv7cst-181" value="" style="endArrow=classic;html=1;" edge="1" parent="1">
          <mxGeometry width="50" height="50" relative="1" as="geometry">
            <mxPoint x="410" y="940" as="sourcePoint" />
            <mxPoint x="610" y="940" as="targetPoint" />
          </mxGeometry>
        </mxCell>
        <mxCell id="ILm5f9nuPFu_kfyv7cst-182" value="ubus_notify" style="edgeLabel;html=1;align=center;verticalAlign=middle;resizable=0;points=[];" vertex="1" connectable="0" parent="ILm5f9nuPFu_kfyv7cst-181">
          <mxGeometry x="0.15" y="-3" relative="1" as="geometry">
            <mxPoint as="offset" />
          </mxGeometry>
        </mxCell>
        <mxCell id="ILm5f9nuPFu_kfyv7cst-183" value="" style="endArrow=classic;html=1;" edge="1" parent="1">
          <mxGeometry width="50" height="50" relative="1" as="geometry">
            <mxPoint x="610" y="810" as="sourcePoint" />
            <mxPoint x="410" y="810" as="targetPoint" />
          </mxGeometry>
        </mxCell>
        <mxCell id="ILm5f9nuPFu_kfyv7cst-184" value="ubus subscribe" style="edgeLabel;html=1;align=center;verticalAlign=middle;resizable=0;points=[];" vertex="1" connectable="0" parent="ILm5f9nuPFu_kfyv7cst-183">
          <mxGeometry x="-0.26" y="2" relative="1" as="geometry">
            <mxPoint as="offset" />
          </mxGeometry>
        </mxCell>
      </root>
    </mxGraphModel>
  </diagram>
</mxfile>
